<svg xmlns="http://www.w3.org/2000/svg" width="40" height="40" fill="none" fill-rule="evenodd" xmlns:v="https://vecta.io/nano"><path d="M0 20a20 20 0 1 1 40 0 20 20 0 1 1-40 0z" fill="#e61f75"/><path d="M25.5 23.2c0 1-1.3 2.3-2.7 2.3-1.4 0-4.2-1.7-5.4-2.9s-2.9-3.9-2.9-5.4c0-1.5 1.3-2.7 2.3-2.7h.9c.2 0 .3.1.4.3a129 129 0 0 0 .9 1.8c.4.8-.4 1.7-.8 2.2.2.4.5 1.2 1.2 1.8s1.4 1 1.8 1.2c.3-.3 1-.9 1.7-.9.2 0 .3 0 .5.1l1.8.9c.2.1.3.2.3.4v.9zM20 9A11 11 0 0 0 9 20a11 11 0 0 0 1.7 5.9L9 30.4c-.1.2 0 .4.1.5.1.1.2.1.3.1.1 0 .1 0 .2 0l4.6-1.6A11 11 0 0 0 20 31a11 11 0 0 0 11-11A11 11 0 0 0 20 9h0z" fill="#fff"/></svg>