<svg xmlns="http://www.w3.org/2000/svg" width="40" height="40" fill="none" fill-rule="evenodd" xmlns:v="https://vecta.io/nano"><path d="M0 20a20 20 0 1 1 40 0 20 20 0 1 1-40 0z" fill="#e61f75"/><path d="M19.83 9.17l-4.4.06c-1.14.05-1.9.23-2.6.5a5.2 5.2 0 0 0-1.89 1.23c-.6.6-.96 1.2-1.23 1.9a7.8 7.8 0 0 0-.5 2.59l-.06 4.4.06 4.4c.05 1.14.23 1.9.5 2.6.27.7.64 1.3 1.23 1.9a5.2 5.2 0 0 0 1.89 1.23c.68.26 1.45.44 2.6.5l4.4.06 4.4-.06c1.14-.05 1.9-.23 2.6-.5a5.2 5.2 0 0 0 1.89-1.23c.6-.6.96-1.2 1.23-1.9a7.9 7.9 0 0 0 .5-2.59l.06-4.4-.06-4.4a7.9 7.9 0 0 0-.5-2.59c-.27-.7-.64-1.3-1.23-1.9a5.2 5.2 0 0 0-1.89-1.23c-.68-.26-1.46-.44-2.6-.5l-4.4-.06z" fill="#fff"/><path d="M18.88 11.1h.96l4.3.06a5.9 5.9 0 0 1 1.98.37 3.3 3.3 0 0 1 1.23.8 3.3 3.3 0 0 1 .8 1.23 5.9 5.9 0 0 1 .37 1.98l.06 4.3-.06 4.3a5.9 5.9 0 0 1-.37 1.98 3.3 3.3 0 0 1-.8 1.23 3.3 3.3 0 0 1-1.23.8c-.38.15-.94.32-1.98.37l-4.3.06a74.1 74.1 0 0 1-4.31-.06 5.9 5.9 0 0 1-1.98-.37 3.3 3.3 0 0 1-1.23-.8 3.3 3.3 0 0 1-.8-1.23 5.9 5.9 0 0 1-.37-1.98l-.06-4.3.06-4.3a5.9 5.9 0 0 1 .37-1.98 3.3 3.3 0 0 1 .8-1.23 3.3 3.3 0 0 1 1.23-.8 5.9 5.9 0 0 1 1.98-.37l3.35-.06zm6.65 1.77c-.7 0-1.28.57-1.28 1.28s.57 1.28 1.28 1.28 1.28-.57 1.28-1.28-.57-1.28-1.28-1.28h0zm-5.7 1.5a5.5 5.5 0 0 0-5.48 5.48 5.5 5.5 0 0 0 5.48 5.48 5.5 5.5 0 0 0 5.48-5.48 5.5 5.5 0 0 0-5.48-5.48h0zm0 1.9c1.96 0 3.56 1.6 3.56 3.56s-1.6 3.56-3.56 3.56-3.56-1.6-3.56-3.56 1.6-3.56 3.56-3.56h0z" fill="#e61f75"/></svg>