<svg xmlns="http://www.w3.org/2000/svg" viewBox="0 0 303.88 132.19"><defs><style>.cls-1{fill:#35b8c6;}.cls-2{fill:#34b6c3;}.cls-3{fill:#e61f75;}.cls-4{fill:#282355;}.cls-5{fill:#272252;}</style></defs><title>ori_colorido</title><g id="Layer_2" data-name="Layer 2"><g id="Layer_1-2" data-name="Layer 1"><polygon class="cls-1" points="262.08 99.44 261.83 99.44 261.83 99.19 262.08 99.44"/><path class="cls-2" d="M191.72,62.19h0v0Z"/><path class="cls-2" d="M228.93,99.41H132.5v-37h59.19v-.22h0Z"/><path class="cls-1" d="M188.11,62.41a30.05,30.05,0,0,0,3.58-.22v.22Z"/><path class="cls-1" d="M191.72,62.19h0v0Z"/><path class="cls-3" d="M217.71,32.82a29.59,29.59,0,0,1-26,29.37l-33-33-26-26h55.36a28.08,28.08,0,0,1,3.58.23A29.57,29.57,0,0,1,217.71,32.82Z"/><path class="cls-4" d="M191.69,62.16v0a30.05,30.05,0,0,1-3.58.22H132.5V3.22h.25l26,26Z"/><path class="cls-5" d="M191.69,62.19v.22h-3.58A30.05,30.05,0,0,0,191.69,62.19Z"/><path class="cls-2" d="M100.42,50.49A50.33,50.33,0,0,1,15.59,87.12L50,50.39,97.56,66.83a50.51,50.51,0,0,0-12-52l0,0A50.19,50.19,0,0,1,100.42,50.49Z"/><path class="cls-3" d="M97.56,66.83,50,50.39,85.53,14.86A50.51,50.51,0,0,1,97.56,66.83Z"/><path class="cls-4" d="M85.53,14.86c-18.1,17.56-53.29,54-69.94,72.26C-23.8,52.37,16.84-25.37,77.46,8.25A45.74,45.74,0,0,1,85.53,14.86Z"/><rect class="cls-2" x="260.82" y="2.97" width="43.05" height="96.44"/><rect class="cls-3" x="260.82" y="2.97" width="43.05" height="29.74"/><rect class="cls-4" x="260.82" y="31.34" width="43.05" height="14.87"/><path class="cls-4" d="M25.84,119.52H37.15v3.24H33.52v9.1H29.47v-9.1H25.84Z"/><path class="cls-4" d="M46.53,131.86,51,119.52h4.12l4.42,12.34h-4L55,130.23H51l-.46,1.63ZM53,123.24l-1.25,4.42h2.56Z"/><path class="cls-4" d="M70.91,131.86V119.52h4V129h5.56v2.88Z"/><path class="cls-4" d="M92.25,119.52h4v4l3.54-4h4.75l-4.51,4.65,5,7.69h-4.85l-3-4.92-1,1v3.91h-4Z"/><path class="cls-4" d="M139.7,124.24a2,2,0,0,0-2.19-2c-1.42,0-2.28,1.22-2.28,3.6,0,1.73.38,3.36,2.44,3.36,1.3,0,1.92-.91,2.07-2.09h3.89a5.52,5.52,0,0,1-5.9,5.11c-4.07,0-6.54-2.5-6.54-6.51s2.71-6.48,6.15-6.48c3.77,0,5.88,1.87,6.2,5Z"/><path class="cls-4" d="M167.68,125.62a6.15,6.15,0,0,1-6.48,6.57c-3.87,0-6.46-2.4-6.46-6.6a6.47,6.47,0,0,1,12.94,0Zm-8.89,0c0,1.58.48,3.55,2.41,3.55,1.75,0,2.44-1.51,2.44-3.55,0-1.68-.69-3.46-2.47-3.41S158.79,124.06,158.79,125.62Z"/><path class="cls-4" d="M179.58,131.86V119.52h4V129h5.56v2.88Z"/><path class="cls-4" d="M200.94,131.86V119.52H211v2.88h-6v1.77h5.09v2.88H205V129h6.25v2.88Z"/><path class="cls-4" d="M222.47,119.52h11.31v3.24h-3.63v9.1h-4v-9.1h-3.64Z"/><path class="cls-4" d="M245.55,131.86V119.52h4v12.34Z"/><path class="cls-4" d="M261.22,119.52h4.08l2.16,8.21,2.24-8.21h4.08l-4.28,12.34h-4.06Z"/><path class="cls-4" d="M297.71,125.62a6.14,6.14,0,0,1-6.47,6.57c-3.88,0-6.46-2.4-6.46-6.6a6.47,6.47,0,0,1,12.93,0Zm-8.89,0c0,1.58.48,3.55,2.42,3.55,1.74,0,2.43-1.51,2.43-3.55,0-1.68-.69-3.46-2.47-3.41S288.82,124.06,288.82,125.62Z"/></g></g></svg>