<svg xmlns="http://www.w3.org/2000/svg" width="112" height="48" fill="none" xmlns:v="https://vecta.io/nano"><g clip-path="url(#A)" fill="#fff"><path d="M70.66 22.582l13.72 13.524H48.83V1.17h20.5c2.776.002 5.447 1.047 7.468 2.922s3.24 4.438 3.4 7.168a10.64 10.64 0 0 1-2.498 7.524c-1.774 2.104-4.296 3.46-7.05 3.797M112 1.08H96.13v35.017H112V1.08zM5.746 31.633a18.7 18.7 0 0 0 13.15 4.988c4.878-.107 9.52-2.104 12.913-5.56s5.27-8.088 5.22-12.896-2.022-9.403-5.488-12.788l-.018.017c-1.636-1.544-2.023-1.75-2.973-2.4C6.205-9.213-8.77 19.016 5.746 31.633zm3.777 11.77H13.7v1.175h-1.336v3.304h-1.5V44.58h-1.34v-1.175zm7.627 4.478l1.63-4.48h1.516l1.628 4.48H20.44l-.177-.6H18.78l-.17.6h-1.46zm2.375-3.128l-.46 1.604h.94l-.48-1.604zm6.6 3.128v-4.48h1.5v3.433h2.045v1.045h-3.536zM34 43.404h1.494v1.45l1.308-1.45h1.747l-1.66 1.685 1.837 2.794H36.94l-1.092-1.785-.353.367v1.418h-1.5l.005-4.48zm17.5 1.7a.75.75 0 0 0-.064-.295.74.74 0 0 0-.178-.245c-.076-.07-.165-.122-.262-.155s-.2-.047-.303-.04c-.524 0-.84.443-.84 1.306 0 .63.14 1.22.896 1.22.48 0 .708-.33.765-.76h1.434c-.133 1.16-.98 1.853-2.173 1.853-1.502 0-2.412-.908-2.412-2.363s.998-2.36 2.267-2.36c1.388 0 2.157.678 2.285 1.828l-1.414.008zm10.3.504c0 1.524-1.043 2.382-2.387 2.382-1.428 0-2.38-.87-2.38-2.394 0-1.407.965-2.318 2.38-2.318 1.622-.01 2.387 1.15 2.387 2.33zm-3.277 0c0 .58.176 1.3.9 1.3.643 0 .896-.55.896-1.3 0-.6-.253-1.256-.9-1.24s-.877.672-.877 1.24zm7.665 2.264v-4.48h1.5v3.433h2.045v1.045h-3.536zm7.872 0v-4.48h3.706v1.045H75.55v.64h1.875v1.045H75.55v.703h2.302v1.045H74.06zm7.938-4.478h4.167v1.175h-1.34v3.304h-1.48V44.58h-1.337l-.01-1.175zm8.502 4.478v-4.48H92v4.48h-1.5zm5.788-4.478H97.8l.796 2.98.828-2.98h1.502l-1.57 4.48H97.85l-1.563-4.48zm13.44 2.214c0 1.524-1.04 2.382-2.387 2.382-1.427 0-2.38-.87-2.38-2.394 0-1.407.967-2.318 2.38-2.318 1.622-.01 2.387 1.15 2.387 2.33zm-3.277 0c0 .58.177 1.3.9 1.3.644 0 .897-.55.897-1.3 0-.6-.253-1.256-.9-1.24s-.877.672-.877 1.24h0z"/></g><defs><clipPath id="A"><path fill="#fff" d="M0 0h112v48H0z"/></clipPath></defs></svg>