<svg width="112" height="48" viewBox="0 0 112 48" fill="none" xmlns="http://www.w3.org/2000/svg">
<g clip-path="url(#clip0)">
<path d="M70.6609 22.5819L84.3785 36.1063H48.8304V1.17082H69.3313C72.1074 1.1729 74.7782 2.21776 76.7995 4.0925C78.8208 5.96724 80.0405 8.53076 80.2101 11.2607C80.3796 13.9906 79.4862 16.6815 77.7119 18.785C75.9376 20.8886 73.416 22.2464 70.6609 22.5819" fill="white"/>
<path d="M112 1.08H96.1312V36.0966H112V1.08Z" fill="white"/>
<path d="M5.74624 31.6327C9.29303 34.9355 14.0183 36.7278 18.8975 36.621C23.7766 36.5141 28.4164 34.5168 31.8107 31.062C35.2051 27.6073 37.0804 22.9736 37.0301 18.1657C36.9798 13.3577 35.0079 8.7631 31.542 5.37803L31.5244 5.39541C29.8869 3.84977 29.5103 3.64304 28.5514 2.99387C6.20512 -9.21286 -8.77148 19.0164 5.74624 31.6327Z" fill="white"/>
<path d="M9.52295 43.4036H13.6902V44.5783H12.3547V47.8822H10.8643V44.5783H9.52295V43.4036Z" fill="white"/>
<path d="M17.1495 47.8822L18.7791 43.4036H20.295L21.9227 47.8822H20.4401L20.2636 47.2909H18.7791L18.6085 47.8822H17.1495ZM19.5243 44.7542L19.0635 46.3578H20.0028L19.5243 44.7542Z" fill="white"/>
<path d="M26.1351 47.8822V43.4036H27.6255V46.8369H29.6709V47.8822H26.1351Z" fill="white"/>
<path d="M34.0009 43.4036H35.4952V44.8527L36.8032 43.4036H38.5505L36.8915 45.0884L38.729 47.8822H36.9405L35.8482 46.0969L35.4952 46.464V47.8822H34.0048L34.0009 43.4036Z" fill="white"/>
<path d="M51.4896 45.1135C51.4888 45.012 51.4669 44.9117 51.4252 44.8189C51.3835 44.7261 51.3229 44.6427 51.2472 44.5739C51.1714 44.5051 51.0822 44.4523 50.9849 44.4188C50.8876 44.3854 50.7844 44.3719 50.6817 44.3793C50.1581 44.3793 49.8423 44.8218 49.8423 45.6854C49.8423 46.3152 49.9816 46.9064 50.7385 46.9064C51.219 46.9064 51.4465 46.5761 51.5034 46.1471H52.9369C52.8035 47.3064 51.9564 48 50.764 48C49.2619 48 48.3519 47.0919 48.3519 45.6371C48.3519 44.1822 49.3501 43.278 50.6189 43.278C52.0073 43.278 52.7761 43.9562 52.9035 45.1058L51.4896 45.1135Z" fill="white"/>
<path d="M61.8009 45.6178C61.8009 47.1422 60.7576 48 59.4143 48C57.9866 48 57.0336 47.1286 57.0336 45.6062C57.0336 44.1996 57.9984 43.2877 59.4143 43.2877C61.0361 43.2781 61.8009 44.4373 61.8009 45.6178ZM58.524 45.6178C58.524 46.1974 58.7005 46.9065 59.4143 46.9065C60.0575 46.9065 60.3105 46.3578 60.3105 45.6178C60.3105 45.0092 60.0575 44.3619 59.4006 44.3793C58.7436 44.3967 58.524 45.0517 58.524 45.6178Z" fill="white"/>
<path d="M66.1877 47.8822V43.4036H67.6781V46.8369H69.7235V47.8822H66.1877Z" fill="white"/>
<path d="M74.0613 47.8822V43.4036H77.7677V44.4489H75.5517V45.0884H77.4265V46.1336H75.5517V46.8369H77.854V47.8822H74.0613Z" fill="white"/>
<path d="M81.9978 43.4036H86.165V44.5783H84.8256V47.8822H83.345V44.5783H82.0076L81.9978 43.4036Z" fill="white"/>
<path d="M90.5009 47.8822V43.4036H91.9913V47.8822H90.5009Z" fill="white"/>
<path d="M96.288 43.4036H97.7901L98.5863 46.3829L99.4139 43.4036H100.916L99.3472 47.8822H97.8509L96.288 43.4036Z" fill="white"/>
<path d="M109.727 45.6178C109.727 47.1422 108.686 48 107.34 48C105.913 48 104.96 47.1286 104.96 45.6062C104.96 44.1996 105.927 43.2877 107.34 43.2877C108.962 43.2781 109.727 44.4373 109.727 45.6178ZM106.45 45.6178C106.45 46.1974 106.627 46.9065 107.34 46.9065C107.984 46.9065 108.237 46.3578 108.237 45.6178C108.237 45.0092 107.984 44.3619 107.327 44.3793C106.67 44.3967 106.45 45.0517 106.45 45.6178V45.6178Z" fill="white"/>
</g>
<defs>
<clipPath id="clip0">
<rect width="112" height="48" fill="white"/>
</clipPath>
</defs>
</svg>
