<svg xmlns="http://www.w3.org/2000/svg" width="110" height="48" fill="none" xmlns:v="https://vecta.io/nano"><path d="M94.6 36.1h-.1V36l.1.1z" fill="#35b8c6"/><path d="M82.6 36.1H47.8V22.7l21.4-.1 13.4 13.5z" fill="#34b6c3"/><path d="M68 22.7c.4 0 1 0 1.3-.1v.1H68z" fill="#35b8c6"/><path d="M78.6 11.9c0 2.6-1 5.2-2.7 7.1s-4 3.2-6.7 3.5L48 1.2h20c.4 0 1 0 1.3.1 2.6.3 5 1.6 6.7 3.5s2.7 4.5 2.7 7.1h0z" fill="#e61f75"/><path d="M69.2 22.6c-.4.1-1 .1-1.3.1h-20L48 1.2l21.3 21.4z" fill="#282355"/><path d="M69.2 22.6v.1H68c.4 0 1 0 1.3-.1h0z" fill="#272252"/><path d="M36.2 18.3c0 3.6-1 7.1-3 10s-4.7 5.3-8 6.7a18 18 0 0 1-10.3 1.2c-3.5-.6-6.7-2.2-9.3-4.7L18 18.3l17.2 6c1-3.2 1.3-6.7.5-10.1S33.3 7.8 31 5.4h0c1.7 1.7 3 3.7 4 5.9s1.4 4.6 1.4 7h0z" fill="#34b6c3"/><path d="M35.2 24.3l-17.2-6L31 5.4c2.4 2.4 4 5.5 4.8 8.8s.6 6.8-.5 10.1h0z" fill="#e61f75"/><path d="M31 5.4C24.3 11.8 11.6 25 5.6 31.6-8.6 19 6-9.2 28 3c1 .7 2 1.5 3 2.4z" fill="#282355"/><path d="M109.7 1.1H94v35h15.5v-35z" fill="#34b6c3"/><path d="M109.7 1.1H94v10.8h15.5V1.1z" fill="#e61f75"/><path d="M109.7 11.4H94v5.4h15.5v-5.4zM9.3 43.4h4v1.2H12v3.3h-1.5v-3.3H9.3v-1.2zm7.5 4.5l1.6-4.5H20l1.6 4.5H20v-.6h-1.4l-.2.6H17zm2.3-3.1l-.5 1.6h1l-.5-1.6zm6.5 3.1v-4.5H27v3.4h2v1h-3.5zm7.7-4.5h1.4v1.5l1.3-1.5h1.7L36 45.1l1.8 2.8H36l-1-1.8-.4.4v1.4h-1.4v-4.5zm17 1.7c0-.1 0-.2-.1-.3s-.1-.2-.2-.2-.2-.1-.3-.2-.2 0-.3 0c-.5 0-.8.4-.8 1.3 0 .6.1 1.2 1 1.2.5 0 .7-.3.7-.8h1.4a2 2 0 0 1-.7 1.4c-.4.3-1 .5-1.4.5-1.5 0-2.4-.9-2.4-2.4s1-2.4 2.2-2.4c1.4 0 2 .7 2.2 1.8h-1.4zm10 .5c0 .3 0 .6-.1.9s-.3.6-.5.8-.5.4-.8.5-.6.2-1 .1c-1.4 0-2.3-.9-2.3-2.4 0-.6.2-1.2.7-1.7s1-.7 1.7-.7 1.2.2 1.7.7.7 1 .7 1.7h0zm-3.2 0c0 .6.2 1.3 1 1.3.6 0 1-.5 1-1.3 0-.6-.2-1.3-1-1.2s-1 .7-1 1.2h0zm7.5 2.3v-4.5h1.4v3.4h2v1h-3.5zm7.7 0v-4.5H76v1h-2v.6h1.8v1H74v.7h2.3v1h-3.7zm7.8-4.5h4v1.2H83v3.3h-1.4v-3.3h-1.3v-1.2zm8.3 4.5v-4.5H90v4.5h-1.4zm5.7-4.5h1.5l.8 3 .8-3H99l-1.5 4.5H96l-1.5-4.5zm13.2 2.2c0 .3 0 .6-.1.9s-.3.6-.5.8-.5.4-.8.5-.6.2-1 .1c-1.4 0-2.3-.9-2.3-2.4 0-.6.3-1.2.7-1.6s1-.7 1.6-.7 1.2.2 1.6.7.7 1 .7 1.6h0zm-3.2 0c0 .6.2 1.3 1 1.3.6 0 1-.5 1-1.3 0-.6-.2-1.3-1-1.2s-1 .7-1 1.2z" fill="#282355"/></svg>